Coordinates
version=1
nRows=17
nColumns=24
inDegrees=yes

Units are S.I. units (second, meters, Newtons, ...)
Angles are in degrees.

endheader
time	pelvis_tilt	pelvis_list	pelvis_rotation	pelvis_tx	pelvis_ty	pelvis_tz	hip_flexion_r	hip_adduction_r	hip_rotation_r	knee_angle_r	ankle_angle_r	subtalar_angle_r	mtp_angle_r	hip_flexion_l	hip_adduction_l	hip_rotation_l	knee_angle_l	ankle_angle_l	subtalar_angle_l	mtp_angle_l	lumbar_extension	lumbar_bending	lumbar_rotation
      6.71000000	     36.34742834	      4.02467253	      4.97716385	      1.86816217	      0.67825247	     -0.24653481	    -18.76063949	     -5.78922751	    -14.50923083	    -62.55843534	     11.11770103	      0.29717837	      0.00000000	    -32.74789795	      2.64722764	      3.50108702	    -13.80112783	     17.05680478	      6.69623493	      0.00000000	    -62.50769240	     -0.27804757	     -3.57483408
      6.71500000	     36.29171088	      4.00104644	      5.17992555	      1.87287572	      0.67842054	     -0.24663545	    -18.03784486	     -5.71676233	    -14.66453918	    -61.80729012	     11.72370553	      0.49453775	      0.00000000	    -33.28838312	      2.43098329	      3.48833099	    -13.49887604	     17.28863441	      6.97924042	      0.00000000	    -62.53160891	     -0.08962572	     -3.68778365
      6.72000000	     36.23297374	      3.98887431	      5.36850247	      1.87759554	      0.67853230	     -0.24670698	    -17.34018208	     -5.65965989	    -14.80795973	    -60.97102870	     12.26447367	      0.68084320	      0.00000000	    -33.82584002	      2.22985684	      3.46944291	    -13.19899728	     17.53267492	      7.26943832	      0.00000000	    -62.55723052	      0.07364157	     -3.80022336
      6.72500000	     36.18222955	      3.98949072	      5.56592867	      1.88231678	      0.67860677	     -0.24676722	    -16.69671846	     -5.60854171	    -14.95647144	    -60.02241606	     12.73549532	      0.87286824	      0.00000000	    -34.36852186	      2.02892905	      3.43933176	    -12.90650810	     17.80092053	      7.59433439	      0.00000000	    -62.58949573	      0.21897124	     -3.91839143
      6.73000000	     36.13643404	      3.99903477	      5.75264193	      1.88701320	      0.67863667	     -0.24682132	    -16.09138862	     -5.56623676	    -15.09153541	    -58.97581112	     13.15717180	      1.01107221	      0.00000000	    -34.90866852	      1.84282304	      3.39948758	    -12.62756969	     18.04871089	      7.88383808	      0.00000000	    -62.63658959	      0.35918955	     -4.04376619
      6.73500000	     36.09911236	      4.01983257	      5.93306469	      1.89169383	      0.67861297	     -0.24689054	    -15.52835390	     -5.54000151	    -15.22549696	    -57.84241781	     13.52891203	      1.10366110	      0.00000000	    -35.45917915	      1.67149324	      3.36569327	    -12.34524176	     18.29568057	      8.16812299	      0.00000000	    -62.70320135	      0.50466582	     -4.17477816
      6.74000000	     36.03897895	      4.04764299	      6.07872075	      1.89637238	      0.67853592	     -0.24693559	    -14.97308234	     -5.52849270	    -15.31603765	    -56.60687399	     13.85594866	      1.15245277	      0.00000000	    -35.96847189	      1.53551126	      3.31591484	    -12.10359602	     18.50554294	      8.37468035	      0.00000000	    -62.74095671	      0.61332661	     -4.31333500
      6.74500000	     36.00677305	      4.09286434	      6.26581569	      1.90105046	      0.67842026	     -0.24699805	    -14.50239818	     -5.52041203	    -15.46291626	    -55.27313208	     14.11878551	      1.16684863	      0.00000000	    -36.52498138	      1.37760754	      3.28066637	    -11.82155390	     18.76916357	      8.67129265	      0.00000000	    -62.82561160	      0.74509630	     -4.46725930
      6.75000000	     36.04110456	      4.17436425	      6.45682143	      1.90571798	      0.67829513	     -0.24704353	    -14.17080838	     -5.52948307	    -15.63047620	    -53.81069935	     14.37174914	      1.08138793	      0.00000000	    -37.14512783	      1.24077322	      3.28768898	    -11.56774579	     18.99496647	      8.89714517	      0.00000000	    -62.97787090	      0.86255793	     -4.64535199
      6.75500000	     35.93954105	      4.23152248	      6.57201680	      1.91041275	      0.67803867	     -0.24710351	    -13.68166161	     -5.56845253	    -15.70669634	    -52.31082253	     14.54010071	      1.04218076	      0.00000000	    -37.61475665	      1.16161456	      3.22747115	    -11.32406914	     19.21443306	      9.05007643	      0.00000000	    -62.98814069	      0.94577313	     -4.81140767
      6.76000000	     35.80903206	      4.33824781	      6.60389646	      1.91505502	      0.67767345	     -0.24711284	    -13.16997001	     -5.68659180	    -15.71306389	    -50.76374173	     14.76747529	      0.91711520	      0.00000000	    -38.03559668	      1.19361074	      3.17934414	    -11.12633441	     19.38396385	      9.09664772	      0.00000000	    -62.98871807	      0.93172508	     -4.96567045
      6.76500000	     35.79593711	      4.43018838	      6.85414301	      1.91979458	      0.67741508	     -0.24717274	    -12.94690711	     -5.68303269	    -15.95161451	    -48.98172300	     14.78359365	      0.74184342	      0.00000000	    -38.60200610	      1.02119426	      3.13857820	    -10.88276828	     19.69199231	      9.46511355	      0.00000000	    -63.09101486	      1.08545673	     -5.21747977
      6.77000000	     35.79368911	      4.55647975	      7.01088041	      1.92452537	      0.67708687	     -0.24723455	    -12.75945861	     -5.75039550	    -16.12475566	    -47.13503019	     14.86500946	      0.59713220	      0.00000000	    -39.18513804	      0.95693429	      3.13412343	    -10.64845720	     19.88909280	      9.58384051	      0.00000000	    -63.20626887	      1.16840459	     -5.48042843
      6.77500000	     35.78802790	      4.71899133	      7.17122396	      1.92921932	      0.67669250	     -0.24727345	    -12.61819649	     -5.85035667	    -16.32740281	    -45.19806674	     14.97082381	      0.43919045	      0.00000000	    -39.74131952	      0.91814560	      3.15361493	    -10.46326372	     20.11853546	      9.73854249	      0.00000000	    -63.33560882	      1.22085572	     -5.69694064
      6.78000000	     35.63559679	      4.85691774	      7.21770573	      1.93394301	      0.67616907	     -0.24723491	    -12.29205188	     -5.97014828	    -16.37127195	    -43.24108388	     14.98288814	      0.32164661	      0.00000000	    -40.13626728	      0.96252577	      3.06250431	    -10.28885397	     20.29200201	      9.78734968	      0.00000000	    -63.32521563	      1.19288146	     -5.94387171
      6.78500000	     35.59506558	      5.02025194	      7.38092774	      1.93875328	      0.67568954	     -0.24729502	    -12.22536965	     -6.06920409	    -16.63136304	    -41.10312850	     14.92846703	      0.16166850	      0.00000000	    -40.66653746	      0.92342686	      3.05468405	    -10.10382038	     20.56394381	     10.00994606	      0.00000000	    -63.38428077	      1.26961503	     -6.24094895
      6.79000000	     35.56665055	      5.20374710	      7.52363003	      1.94355284	      0.67517715	     -0.24732808	    -12.22020023	     -6.18276001	    -16.87679137	    -38.87467924	     14.89637338	      0.12153007	      0.00000000	    -41.20482619	      0.91493879	      3.05393472	     -9.93209626	     20.77564116	     10.11823711	      0.00000000	    -63.47505377	      1.30852175	     -6.54018014
